<!-- icon666.com - MILLIONS vector ICONS FREE --><svg viewBox="0 0 64 64" xmlns="http://www.w3.org/2000/svg"><g id="Calendar"><path d="m53 8h-3v-1c0-3.964-6-3.969-6 0v1h-4v-1c0-3.964-6-3.969-6 0v1h-4v-1c0-3.964-6-3.969-6 0v1h-4v-1c0-3.964-6-3.969-6 0v1h-3a7.00818 7.00818 0 0 0 -7 7v38a7.00818 7.00818 0 0 0 7 7h42a7.00818 7.00818 0 0 0 7-7v-38a7.00818 7.00818 0 0 0 -7-7zm-42 6h3v1c0 3.964 6 3.969 6 0v-1h4v1c0 3.964 6 3.969 6 0v-1h4v1c0 3.964 6 3.969 6 0v-1h4v1c0 3.964 6 3.969 6 0v-1h3a1.001 1.001 0 0 1 1 1v8h-44v-8a1.001 1.001 0 0 1 1-1zm42 40h-42a1.001 1.001 0 0 1 -1-1v-24h44v24a1.001 1.001 0 0 1 -1 1z"/></g></svg>