<?xml version="1.0" encoding="utf-8"?>
<!-- Svg Vector Icons : http://www.onlinewebfonts.com/icon -->
<!DOCTYPE svg PUBLIC "-//W3C//DTD SVG 1.1//EN" "http://www.w3.org/Graphics/SVG/1.1/DTD/svg11.dtd">
<svg version="1.1" xmlns="http://www.w3.org/2000/svg" xmlns:xlink="http://www.w3.org/1999/xlink" x="0px" y="0px" viewBox="0 0 256 256" enable-background="new 0 0 256 256" xml:space="preserve">
<metadata> Svg Vector Icons : http://www.onlinewebfonts.com/icon </metadata>
<g><g><g><path fill="#000000" d="M213.8,39.7c-4,0.6-6.7,1.4-10.1,3l-3.9,1.8l-50.5,50.5l-50.5,50.5l-19.4-19.4C68.7,115.5,59,106,57.7,104.9c-5.2-4-11.3-6.1-18-6.1c-5.2,0-8.2,0.6-13.1,3c-3.1,1.5-4.7,2.6-7.7,5.6c-9.3,9.3-11.4,22-5.7,33.9l1.9,3.9l32.7,32.8C70,200.3,81.3,211.4,83,212.4c4.7,2.8,8.2,3.8,14.1,4.1c6.5,0.3,10.1-0.5,15.4-3.2c3.7-1.8,4.8-2.9,65.8-64c66.6-66.6,64.2-64.1,66.5-71.1c1.4-4.3,1.7-10.9,0.7-15.4c-2.7-12.1-12.5-21.1-24.9-22.8C217,39.4,216,39.4,213.8,39.7z"/></g></g></g>
</svg>