<?xml version="1.0" ?><svg data-name="Layer 1" id="Layer_1" viewBox="0 0 272 272" xmlns="http://www.w3.org/2000/svg"><defs><style>.cls-1{fill:#ffeb3c;}</style></defs><title/><ellipse class="cls-1" cx="136" cy="136.89" rx="78.81" ry="79.36"/><polygon class="cls-1" points="136 8 118.89 37.84 153.11 37.84 136 8"/><polygon class="cls-1" points="264 136.88 234.37 154.11 234.37 119.66 264 136.88"/><polygon class="cls-1" points="8 136.88 37.63 154.11 37.63 119.66 8 136.88"/><polygon class="cls-1" points="45.49 45.75 54.34 79.03 78.54 54.67 45.49 45.75"/><polygon class="cls-1" points="226.51 45.75 193.46 54.67 217.66 79.03 226.51 45.75"/><polygon class="cls-1" points="136 264 118.89 234.16 153.11 234.16 136 264"/><polygon class="cls-1" points="45.49 226.25 54.34 192.97 78.54 217.33 45.49 226.25"/><polygon class="cls-1" points="226.51 226.25 193.46 217.33 217.66 192.97 226.51 226.25"/></svg>