<!DOCTYPE svg PUBLIC "-//W3C//DTD SVG 1.1//EN" "http://www.w3.org/Graphics/SVG/1.1/DTD/svg11.dtd">
<!-- Uploaded to: SVG Repo, www.svgrepo.com, Transformed by: SVG Repo Mixer Tools -->
<svg fill="#5570f1" width="800px" height="800px" viewBox="0 0 16.00 16.00" xmlns="http://www.w3.org/2000/svg" stroke="#5570f1" stroke-width="0.00016">
<g id="SVGRepo_bgCarrier" stroke-width="0"/>
<g id="SVGRepo_tracerCarrier" stroke-linecap="round" stroke-linejoin="round"/>
<g id="SVGRepo_iconCarrier"> <path d="M12 14V2H4v12h8zm2 0h2v2H0v-2h2V0h12v14zM5 6h2v2H5V6zm0-3h2v2H5V3zm4 0h2v2H9V3zm0 3h2v2H9V6zm0 3h2v2H9V9zM5 9h2v2H5V9zm2 3h2v2H7v-2z" fill-rule="evenodd"/> </g>
</svg>